<svg xmlns="http://www.w3.org/2000/svg" viewBox="0 0 64 64" width="64" height="64">
  <defs>
    <linearGradient id="g" x1="0" y1="0" x2="1" y2="1">
      <stop offset="0%" stop-color="#18b6f6"/>
      <stop offset="100%" stop-color="#00308f"/>
    </linearGradient>
  </defs>
  <rect x="2" y="2" width="60" height="60" rx="14" fill="url(#g)"/>
  <path d="M19 18h16c5.2 0 9 3 9 7.5 0 3.4-2 5.7-4.6 6.6 3.4.8 5.6 3.4 5.6 7 0 4.7-3.8 7.9-9.4 7.9H19V18z" fill="#fff"/>
  <path d="M25 24v6.5h9c2.2 0 3.6-1.2 3.6-3.2S36.2 24 34 24h-9zm0 12v7h10.2c2.4 0 4-1.4 4-3.5s-1.6-3.5-4-3.5H25z" fill="url(#g)"/>
</svg>
